<svg width="74.219" height="79.395" viewBox="0 0 74.219 79.395" xmlns="http://www.w3.org/2000/svg"><g id="svgGroup" stroke-linecap="round" fill-rule="evenodd" font-size="9pt" stroke="#000" stroke-width="0" fill="#edb155" style="stroke:#000;stroke-width:0;fill:#edb155"><path d="M 48.145 26.856 L 48.438 24.317 A 0.798 0.798 0 0 0 48.55 24.344 Q 48.609 24.355 48.679 24.36 A 1.994 1.994 0 0 0 48.828 24.365 L 50 24.365 A 29.739 29.739 0 0 0 57.666 23.34 A 29.251 29.251 0 0 0 62.624 21.549 A 25.44 25.44 0 0 0 64.649 20.484 A 18.582 18.582 0 0 0 67.946 18.051 A 15.662 15.662 0 0 0 69.727 16.089 A 9.096 9.096 0 0 0 71.68 10.449 A 6.425 6.425 0 0 0 71.461 8.743 A 5.45 5.45 0 0 0 70.947 7.495 Q 70.215 6.201 68.921 5.322 A 8.661 8.661 0 0 0 67.295 4.465 A 11.587 11.587 0 0 0 65.796 3.98 A 15.001 15.001 0 0 0 63.429 3.587 A 18.905 18.905 0 0 0 61.768 3.516 A 29.058 29.058 0 0 0 54.248 4.492 Q 50.586 5.469 47.364 7.153 A 32.265 32.265 0 0 0 41.455 11.109 A 29.033 29.033 0 0 0 37.316 15.381 A 26.715 26.715 0 0 0 36.817 16.04 A 23.3 23.3 0 0 0 34.223 20.51 A 21.223 21.223 0 0 0 33.789 21.582 A 16.684 16.684 0 0 0 32.753 26.264 A 15.485 15.485 0 0 0 32.715 27.344 A 14.123 14.123 0 0 0 33.789 32.813 A 65.871 65.871 0 0 1 37.829 33.049 A 54.055 54.055 0 0 1 40.088 33.301 Q 43.018 33.692 45.166 34.497 A 11.52 11.52 0 0 1 46.752 35.224 Q 47.808 35.816 48.535 36.572 A 4.276 4.276 0 0 1 49.756 39.649 A 4.136 4.136 0 0 1 49.567 40.933 A 3.259 3.259 0 0 1 48.291 42.627 Q 46.826 43.652 44.629 43.652 A 11.51 11.51 0 0 1 41.937 43.323 A 13.602 13.602 0 0 1 41.016 43.067 A 16.511 16.511 0 0 1 37.427 41.431 A 19.716 19.716 0 0 1 34.506 39.257 A 22.148 22.148 0 0 1 34.107 38.892 Q 32.52 37.402 31.25 35.596 A 30.943 30.943 0 0 0 23.273 37.281 A 28.287 28.287 0 0 0 21.216 38.11 A 27.743 27.743 0 0 0 15.009 41.91 A 25.24 25.24 0 0 0 13.257 43.482 A 24.592 24.592 0 0 0 8.008 51.05 A 21.884 21.884 0 0 0 6.104 60.059 Q 6.104 63.916 7.398 67.017 Q 8.692 70.117 11.255 72.315 A 15.904 15.904 0 0 0 14.851 74.612 A 20.898 20.898 0 0 0 17.652 75.684 A 25.609 25.609 0 0 0 21.784 76.563 Q 23.999 76.856 26.514 76.856 A 32.952 32.952 0 0 0 36.929 75.223 A 31.412 31.412 0 0 0 37.085 75.171 A 46.103 46.103 0 0 0 45.67 71.297 A 42.653 42.653 0 0 0 46.338 70.899 A 53.176 53.176 0 0 0 53.172 65.979 A 48.394 48.394 0 0 0 54.053 65.21 A 102.252 102.252 0 0 0 57.294 62.189 A 75.05 75.05 0 0 0 60.083 59.326 A 82.683 82.683 0 0 0 61.865 57.332 Q 62.709 56.353 63.404 55.473 A 38.834 38.834 0 0 0 64.209 54.419 A 637.261 637.261 0 0 1 64.841 53.561 Q 65.635 52.485 66.045 51.943 A 39.85 39.85 0 0 1 66.26 51.66 L 68.018 53.027 A 141.793 141.793 0 0 1 67.407 53.896 Q 66.419 55.292 64.99 57.251 A 53.182 53.182 0 0 1 62.885 59.943 Q 61.732 61.327 60.379 62.79 A 25.86 25.86 0 0 1 60.376 62.793 A 61.386 61.386 0 0 1 56.765 66.373 A 76.229 76.229 0 0 1 54.126 68.677 A 48.027 48.027 0 0 1 47.826 73.107 A 54.305 54.305 0 0 1 46.216 74.024 A 45.821 45.821 0 0 1 38.268 77.418 A 51.998 51.998 0 0 1 36.67 77.905 A 38.454 38.454 0 0 1 28.801 79.277 A 45.768 45.768 0 0 1 25.489 79.395 Q 18.897 79.395 14.112 77.734 A 26.948 26.948 0 0 1 9.86 75.857 A 20.337 20.337 0 0 1 6.177 73.267 A 17.82 17.82 0 0 1 2.083 68.014 A 17.033 17.033 0 0 1 1.514 66.773 A 20.304 20.304 0 0 1 0 58.984 A 24.307 24.307 0 0 1 0.633 53.543 A 27.101 27.101 0 0 1 0.733 53.125 Q 1.465 50.147 2.979 47.315 A 24.475 24.475 0 0 1 6.019 42.906 A 28.085 28.085 0 0 1 6.885 41.943 A 25.421 25.421 0 0 1 11.305 38.237 A 29.426 29.426 0 0 1 12.549 37.451 A 29.119 29.119 0 0 1 17.005 35.302 A 36.577 36.577 0 0 1 20.069 34.277 A 36.879 36.879 0 0 1 25.172 33.213 A 48.268 48.268 0 0 1 29.59 32.813 A 18.212 18.212 0 0 1 28.223 29.126 A 16.152 16.152 0 0 1 27.735 25.147 A 19.851 19.851 0 0 1 29.004 18.042 Q 30.274 14.697 32.495 11.89 Q 34.717 9.082 37.72 6.885 Q 40.723 4.688 44.141 3.15 Q 47.559 1.611 51.245 0.806 Q 54.932 0 58.545 0 Q 62.256 0 65.161 0.757 A 18.705 18.705 0 0 1 67.648 1.584 Q 68.947 2.126 70.001 2.835 A 11.646 11.646 0 0 1 70.069 2.881 A 10.285 10.285 0 0 1 72.198 4.796 A 9.04 9.04 0 0 1 73.145 6.177 A 8.535 8.535 0 0 1 74.219 10.4 Q 74.219 12.94 73.169 15.186 Q 72.119 17.432 70.337 19.263 A 20.445 20.445 0 0 1 67.054 21.98 A 23.375 23.375 0 0 1 66.187 22.534 A 28.632 28.632 0 0 1 61.157 24.951 A 32.952 32.952 0 0 1 55.664 26.441 A 31.72 31.72 0 0 1 51.526 26.921 A 27.908 27.908 0 0 1 50.196 26.953 A 26.193 26.193 0 0 1 49.68 26.948 Q 49.166 26.938 48.803 26.907 A 7.454 7.454 0 0 1 48.78 26.904 A 51.649 51.649 0 0 0 48.594 26.888 Q 48.224 26.856 48.145 26.856 Z M 47.168 39.551 A 2.216 2.216 0 0 0 46.393 37.844 A 3.2 3.2 0 0 0 46.118 37.622 Q 45.235 36.985 43.901 36.573 A 12.058 12.058 0 0 0 43.384 36.426 A 21.94 21.94 0 0 0 41.59 36.041 A 29.817 29.817 0 0 0 39.575 35.767 A 53.544 53.544 0 0 0 35.254 35.498 A 13.742 13.742 0 0 0 37.116 37.716 A 12.71 12.71 0 0 0 37.329 37.915 A 15.287 15.287 0 0 0 39.092 39.311 A 13.448 13.448 0 0 0 39.697 39.697 A 11.846 11.846 0 0 0 41.542 40.604 A 10.467 10.467 0 0 0 42.163 40.82 A 8.78 8.78 0 0 0 43.507 41.134 A 7.005 7.005 0 0 0 44.531 41.211 Q 45.85 41.211 46.509 40.723 A 1.937 1.937 0 0 0 46.871 40.381 A 1.294 1.294 0 0 0 47.168 39.551 Z" vector-effect="non-scaling-stroke"/></g></svg>